# xmcd
#
# Track frame offsets:
#	182
#	19750
#	43750
#	63047
#	83087
#	109762
#
# Disc length: 1710 seconds
# Revision: 0
# Processed by: cddbd v1.5.2PL0 Copyright (c) Steve Scherf et al.
# Submitted via: dBpowerAMP V12.0
#
DISCID=4006ac06
DTITLE=Various Artist - Tonight's the Night
DYEAR=1994
DGENRE=R&B
TTITLE0=Blackstreet feat. SWV - Tonight's the Night (Album Mix)
TTITLE1=Blackstreet feat. SWV and Craig Mack - Tonight's the Night (Brand New Remix) B3
TTITLE2=Blackstreet feat. SWV - Tonight's the Night (Brand New no Rap)
TTITLE3=Blackstreet eat. SWV and Craig Mack - Tonight's the Night (Rain Remix Radio Edit)
TTITLE4=Blackstreet feat. SWV, Craig Mack, and Screwface - Tonight's the Night (Brand New Remix) (B2)
TTITLE5=Blackstreet feat. Screwface - Tonight's the Night (Reggae Remix)
EXTD=
EXTT0=
EXTT1=
EXTT2=
EXTT3=
EXTT4=
EXTT5=
PLAYORDER=
